<svg xmlns="http://www.w3.org/2000/svg" width="1480" height="1440" viewBox="0 0 1480 1440">
<rect width="100%" height="100%" fill="#f3f4f6"/>
<text x="60" y="68" font-size="34" font-weight="800" fill="#111827">DeepSeek V4 Ablation: Evidence Gate and Auditor</text>
<text x="60" y="102" font-size="18" fill="#4b5563">Targeted v0.1 evaluation on 12 gold queries with expected_tools. Default route: C = DeepSeek V4 + evidence gate + semantic auditor.</text>
<rect x="60" y="126" width="1360" height="58" rx="16" fill="#ecfdf5" stroke="#10b981"/>
<text x="84" y="162" font-size="20" font-weight="700" fill="#065f46">Takeaway: C keeps the evidence-gated coverage of B and adds a blocking semantic audit, while avoiding the latency cost of D.</text>
<rect x="60" y="218" width="680" height="360" rx="18" fill="#ffffff" stroke="#d1d5db"/>
<text x="88" y="252" font-size="22" font-weight="700" fill="#111827">Top-k hit</text>
<text x="88" y="276" font-size="14" fill="#6b7280">higher is better</text>
<line x1="132" y1="506" x2="706" y2="506" stroke="#9ca3af"/>
<line x1="132" y1="292" x2="132" y2="506" stroke="#9ca3af"/>
<line x1="127" y1="506.0" x2="706" y2="506.0" stroke="#e5e7eb"/>
<text x="120" y="511.0" text-anchor="end" font-size="12" fill="#6b7280">0%</text>
<line x1="127" y1="399.0" x2="706" y2="399.0" stroke="#e5e7eb"/>
<text x="120" y="404.0" text-anchor="end" font-size="12" fill="#6b7280">50%</text>
<line x1="127" y1="292.0" x2="706" y2="292.0" stroke="#e5e7eb"/>
<text x="120" y="297.0" text-anchor="end" font-size="12" fill="#6b7280">100%</text>
<rect x="166" y="309.8" width="76" height="196.2" rx="8" fill="#6b7280" stroke="#6b7280" stroke-width="0"/>
<text x="204.0" y="301.8" text-anchor="middle" font-size="14" font-weight="700" fill="#111827">91.7%</text>
<text x="204.0" y="526" text-anchor="middle" font-size="12" fill="#374151">A</text>
<text x="204.0" y="544" text-anchor="middle" font-size="11" fill="#6b7280">Pure DeepSeek</text>
<rect x="290" y="416.8" width="76" height="89.2" rx="8" fill="#2563eb" stroke="#2563eb" stroke-width="0"/>
<text x="328.0" y="408.8" text-anchor="middle" font-size="14" font-weight="700" fill="#111827">41.7%</text>
<text x="328.0" y="526" text-anchor="middle" font-size="12" fill="#374151">B</text>
<text x="328.0" y="544" text-anchor="middle" font-size="11" fill="#6b7280">Evidence Gate</text>
<rect x="414" y="452.5" width="76" height="53.5" rx="8" fill="#059669" stroke="#111827" stroke-width="3"/>
<text x="452.0" y="444.5" text-anchor="middle" font-size="14" font-weight="700" fill="#111827">25.0%</text>
<text x="452.0" y="526" text-anchor="middle" font-size="12" fill="#374151">C</text>
<text x="452.0" y="544" text-anchor="middle" font-size="11" fill="#6b7280">Gate + Auditor</text>
<rect x="538" y="434.7" width="76" height="71.3" rx="8" fill="#7c3aed" stroke="#7c3aed" stroke-width="0"/>
<text x="576.0" y="426.7" text-anchor="middle" font-size="14" font-weight="700" fill="#111827">33.3%</text>
<text x="576.0" y="526" text-anchor="middle" font-size="12" fill="#374151">D</text>
<text x="576.0" y="544" text-anchor="middle" font-size="11" fill="#6b7280">Full KG</text>
<rect x="740" y="218" width="680" height="360" rx="18" fill="#ffffff" stroke="#d1d5db"/>
<text x="768" y="252" font-size="22" font-weight="700" fill="#111827">Recommendation evidence</text>
<text x="768" y="276" font-size="14" fill="#6b7280">higher is better</text>
<line x1="812" y1="506" x2="1386" y2="506" stroke="#9ca3af"/>
<line x1="812" y1="292" x2="812" y2="506" stroke="#9ca3af"/>
<line x1="807" y1="506.0" x2="1386" y2="506.0" stroke="#e5e7eb"/>
<text x="800" y="511.0" text-anchor="end" font-size="12" fill="#6b7280">0%</text>
<line x1="807" y1="399.0" x2="1386" y2="399.0" stroke="#e5e7eb"/>
<text x="800" y="404.0" text-anchor="end" font-size="12" fill="#6b7280">50%</text>
<line x1="807" y1="292.0" x2="1386" y2="292.0" stroke="#e5e7eb"/>
<text x="800" y="297.0" text-anchor="end" font-size="12" fill="#6b7280">100%</text>
<rect x="846" y="502.0" width="76" height="4.0" rx="8" fill="#6b7280" stroke="#6b7280" stroke-width="0"/>
<text x="884.0" y="494.0" text-anchor="middle" font-size="14" font-weight="700" fill="#111827">0.0%</text>
<text x="884.0" y="526" text-anchor="middle" font-size="12" fill="#374151">A</text>
<text x="884.0" y="544" text-anchor="middle" font-size="11" fill="#6b7280">Pure DeepSeek</text>
<rect x="970" y="423.0" width="76" height="83.0" rx="8" fill="#2563eb" stroke="#2563eb" stroke-width="0"/>
<text x="1008.0" y="415.0" text-anchor="middle" font-size="14" font-weight="700" fill="#111827">38.8%</text>
<text x="1008.0" y="526" text-anchor="middle" font-size="12" fill="#374151">B</text>
<text x="1008.0" y="544" text-anchor="middle" font-size="11" fill="#6b7280">Evidence Gate</text>
<rect x="1094" y="459.9" width="76" height="46.1" rx="8" fill="#059669" stroke="#111827" stroke-width="3"/>
<text x="1132.0" y="451.9" text-anchor="middle" font-size="14" font-weight="700" fill="#111827">21.6%</text>
<text x="1132.0" y="526" text-anchor="middle" font-size="12" fill="#374151">C</text>
<text x="1132.0" y="544" text-anchor="middle" font-size="11" fill="#6b7280">Gate + Auditor</text>
<rect x="1218" y="455.4" width="76" height="50.6" rx="8" fill="#7c3aed" stroke="#7c3aed" stroke-width="0"/>
<text x="1256.0" y="447.4" text-anchor="middle" font-size="14" font-weight="700" fill="#111827">23.6%</text>
<text x="1256.0" y="526" text-anchor="middle" font-size="12" fill="#374151">D</text>
<text x="1256.0" y="544" text-anchor="middle" font-size="11" fill="#6b7280">Full KG</text>
<rect x="60" y="610" width="680" height="360" rx="18" fill="#ffffff" stroke="#d1d5db"/>
<text x="88" y="644" font-size="22" font-weight="700" fill="#111827">High hallucination</text>
<text x="88" y="668" font-size="14" fill="#6b7280">lower is better</text>
<line x1="132" y1="898" x2="706" y2="898" stroke="#9ca3af"/>
<line x1="132" y1="684" x2="132" y2="898" stroke="#9ca3af"/>
<line x1="127" y1="898.0" x2="706" y2="898.0" stroke="#e5e7eb"/>
<text x="120" y="903.0" text-anchor="end" font-size="12" fill="#6b7280">0%</text>
<line x1="127" y1="791.0" x2="706" y2="791.0" stroke="#e5e7eb"/>
<text x="120" y="796.0" text-anchor="end" font-size="12" fill="#6b7280">50%</text>
<line x1="127" y1="684.0" x2="706" y2="684.0" stroke="#e5e7eb"/>
<text x="120" y="689.0" text-anchor="end" font-size="12" fill="#6b7280">100%</text>
<rect x="166" y="839.4" width="76" height="58.6" rx="8" fill="#6b7280" stroke="#6b7280" stroke-width="0"/>
<text x="204.0" y="831.4" text-anchor="middle" font-size="14" font-weight="700" fill="#111827">27.4%</text>
<text x="204.0" y="918" text-anchor="middle" font-size="12" fill="#374151">A</text>
<text x="204.0" y="936" text-anchor="middle" font-size="11" fill="#6b7280">Pure DeepSeek</text>
<rect x="290" y="888" width="76" height="10" fill="#e5e7eb"/>
<text x="328.0" y="880" text-anchor="middle" font-size="14" fill="#6b7280">N/A</text>
<text x="328.0" y="918" text-anchor="middle" font-size="12" fill="#374151">B</text>
<text x="328.0" y="936" text-anchor="middle" font-size="11" fill="#6b7280">Evidence Gate</text>
<rect x="414" y="894.0" width="76" height="4.0" rx="8" fill="#059669" stroke="#111827" stroke-width="3"/>
<text x="452.0" y="886.0" text-anchor="middle" font-size="14" font-weight="700" fill="#111827">0.0%</text>
<text x="452.0" y="918" text-anchor="middle" font-size="12" fill="#374151">C</text>
<text x="452.0" y="936" text-anchor="middle" font-size="11" fill="#6b7280">Gate + Auditor</text>
<rect x="538" y="894.0" width="76" height="4.0" rx="8" fill="#7c3aed" stroke="#7c3aed" stroke-width="0"/>
<text x="576.0" y="886.0" text-anchor="middle" font-size="14" font-weight="700" fill="#111827">0.0%</text>
<text x="576.0" y="918" text-anchor="middle" font-size="12" fill="#374151">D</text>
<text x="576.0" y="936" text-anchor="middle" font-size="11" fill="#6b7280">Full KG</text>
<rect x="740" y="610" width="680" height="360" rx="18" fill="#ffffff" stroke="#d1d5db"/>
<text x="768" y="644" font-size="22" font-weight="700" fill="#111827">Semantic audit pass</text>
<text x="768" y="668" font-size="14" fill="#6b7280">higher is better</text>
<line x1="812" y1="898" x2="1386" y2="898" stroke="#9ca3af"/>
<line x1="812" y1="684" x2="812" y2="898" stroke="#9ca3af"/>
<line x1="807" y1="898.0" x2="1386" y2="898.0" stroke="#e5e7eb"/>
<text x="800" y="903.0" text-anchor="end" font-size="12" fill="#6b7280">0%</text>
<line x1="807" y1="791.0" x2="1386" y2="791.0" stroke="#e5e7eb"/>
<text x="800" y="796.0" text-anchor="end" font-size="12" fill="#6b7280">50%</text>
<line x1="807" y1="684.0" x2="1386" y2="684.0" stroke="#e5e7eb"/>
<text x="800" y="689.0" text-anchor="end" font-size="12" fill="#6b7280">100%</text>
<rect x="846" y="894.0" width="76" height="4.0" rx="8" fill="#6b7280" stroke="#6b7280" stroke-width="0"/>
<text x="884.0" y="886.0" text-anchor="middle" font-size="14" font-weight="700" fill="#111827">0.0%</text>
<text x="884.0" y="918" text-anchor="middle" font-size="12" fill="#374151">A</text>
<text x="884.0" y="936" text-anchor="middle" font-size="11" fill="#6b7280">Pure DeepSeek</text>
<rect x="970" y="888" width="76" height="10" fill="#e5e7eb"/>
<text x="1008.0" y="880" text-anchor="middle" font-size="14" fill="#6b7280">N/A</text>
<text x="1008.0" y="918" text-anchor="middle" font-size="12" fill="#374151">B</text>
<text x="1008.0" y="936" text-anchor="middle" font-size="11" fill="#6b7280">Evidence Gate</text>
<rect x="1094" y="684.0" width="76" height="214.0" rx="8" fill="#059669" stroke="#111827" stroke-width="3"/>
<text x="1132.0" y="676.0" text-anchor="middle" font-size="14" font-weight="700" fill="#111827">100.0%</text>
<text x="1132.0" y="918" text-anchor="middle" font-size="12" fill="#374151">C</text>
<text x="1132.0" y="936" text-anchor="middle" font-size="11" fill="#6b7280">Gate + Auditor</text>
<rect x="1218" y="719.7" width="76" height="178.3" rx="8" fill="#7c3aed" stroke="#7c3aed" stroke-width="0"/>
<text x="1256.0" y="711.7" text-anchor="middle" font-size="14" font-weight="700" fill="#111827">83.3%</text>
<text x="1256.0" y="918" text-anchor="middle" font-size="12" fill="#374151">D</text>
<text x="1256.0" y="936" text-anchor="middle" font-size="11" fill="#6b7280">Full KG</text>
<rect x="60" y="1002" width="680" height="360" rx="18" fill="#ffffff" stroke="#d1d5db"/>
<text x="88" y="1036" font-size="22" font-weight="700" fill="#111827">Evidence coverage</text>
<text x="88" y="1060" font-size="14" fill="#6b7280">higher is better</text>
<line x1="132" y1="1290" x2="706" y2="1290" stroke="#9ca3af"/>
<line x1="132" y1="1076" x2="132" y2="1290" stroke="#9ca3af"/>
<line x1="127" y1="1290.0" x2="706" y2="1290.0" stroke="#e5e7eb"/>
<text x="120" y="1295.0" text-anchor="end" font-size="12" fill="#6b7280">0%</text>
<line x1="127" y1="1183.0" x2="706" y2="1183.0" stroke="#e5e7eb"/>
<text x="120" y="1188.0" text-anchor="end" font-size="12" fill="#6b7280">50%</text>
<line x1="127" y1="1076.0" x2="706" y2="1076.0" stroke="#e5e7eb"/>
<text x="120" y="1081.0" text-anchor="end" font-size="12" fill="#6b7280">100%</text>
<rect x="166" y="1286.0" width="76" height="4.0" rx="8" fill="#6b7280" stroke="#6b7280" stroke-width="0"/>
<text x="204.0" y="1278.0" text-anchor="middle" font-size="14" font-weight="700" fill="#111827">0.0%</text>
<text x="204.0" y="1310" text-anchor="middle" font-size="12" fill="#374151">A</text>
<text x="204.0" y="1328" text-anchor="middle" font-size="11" fill="#6b7280">Pure DeepSeek</text>
<rect x="290" y="1121.9" width="76" height="168.1" rx="8" fill="#2563eb" stroke="#2563eb" stroke-width="0"/>
<text x="328.0" y="1113.9" text-anchor="middle" font-size="14" font-weight="700" fill="#111827">78.6%</text>
<text x="328.0" y="1310" text-anchor="middle" font-size="12" fill="#374151">B</text>
<text x="328.0" y="1328" text-anchor="middle" font-size="11" fill="#6b7280">Evidence Gate</text>
<rect x="414" y="1159.5" width="76" height="130.5" rx="8" fill="#059669" stroke="#111827" stroke-width="3"/>
<text x="452.0" y="1151.5" text-anchor="middle" font-size="14" font-weight="700" fill="#111827">61.0%</text>
<text x="452.0" y="1310" text-anchor="middle" font-size="12" fill="#374151">C</text>
<text x="452.0" y="1328" text-anchor="middle" font-size="11" fill="#6b7280">Gate + Auditor</text>
<rect x="538" y="1133.5" width="76" height="156.5" rx="8" fill="#7c3aed" stroke="#7c3aed" stroke-width="0"/>
<text x="576.0" y="1125.5" text-anchor="middle" font-size="14" font-weight="700" fill="#111827">73.1%</text>
<text x="576.0" y="1310" text-anchor="middle" font-size="12" fill="#374151">D</text>
<text x="576.0" y="1328" text-anchor="middle" font-size="11" fill="#6b7280">Full KG</text>
<rect x="740" y="1002" width="680" height="360" rx="18" fill="#ffffff" stroke="#d1d5db"/>
<text x="768" y="1036" font-size="22" font-weight="700" fill="#111827">Mean latency</text>
<text x="768" y="1060" font-size="14" fill="#6b7280">lower is better</text>
<line x1="812" y1="1290" x2="1386" y2="1290" stroke="#9ca3af"/>
<line x1="812" y1="1076" x2="812" y2="1290" stroke="#9ca3af"/>
<line x1="807" y1="1290.0" x2="1386" y2="1290.0" stroke="#e5e7eb"/>
<text x="800" y="1295.0" text-anchor="end" font-size="12" fill="#6b7280">0s</text>
<line x1="807" y1="1183.0" x2="1386" y2="1183.0" stroke="#e5e7eb"/>
<text x="800" y="1188.0" text-anchor="end" font-size="12" fill="#6b7280">42s</text>
<line x1="807" y1="1076.0" x2="1386" y2="1076.0" stroke="#e5e7eb"/>
<text x="800" y="1081.0" text-anchor="end" font-size="12" fill="#6b7280">84s</text>
<rect x="846" y="1212.8" width="76" height="77.2" rx="8" fill="#6b7280" stroke="#6b7280" stroke-width="0"/>
<text x="884.0" y="1204.8" text-anchor="middle" font-size="14" font-weight="700" fill="#111827">30.2s</text>
<text x="884.0" y="1310" text-anchor="middle" font-size="12" fill="#374151">A</text>
<text x="884.0" y="1328" text-anchor="middle" font-size="11" fill="#6b7280">Pure DeepSeek</text>
<rect x="970" y="1223.5" width="76" height="66.5" rx="8" fill="#2563eb" stroke="#2563eb" stroke-width="0"/>
<text x="1008.0" y="1215.5" text-anchor="middle" font-size="14" font-weight="700" fill="#111827">26.1s</text>
<text x="1008.0" y="1310" text-anchor="middle" font-size="12" fill="#374151">B</text>
<text x="1008.0" y="1328" text-anchor="middle" font-size="11" fill="#6b7280">Evidence Gate</text>
<rect x="1094" y="1227.8" width="76" height="62.2" rx="8" fill="#059669" stroke="#111827" stroke-width="3"/>
<text x="1132.0" y="1219.8" text-anchor="middle" font-size="14" font-weight="700" fill="#111827">24.4s</text>
<text x="1132.0" y="1310" text-anchor="middle" font-size="12" fill="#374151">C</text>
<text x="1132.0" y="1328" text-anchor="middle" font-size="11" fill="#6b7280">Gate + Auditor</text>
<rect x="1218" y="1108.6" width="76" height="181.4" rx="8" fill="#7c3aed" stroke="#7c3aed" stroke-width="0"/>
<text x="1256.0" y="1100.6" text-anchor="middle" font-size="14" font-weight="700" fill="#111827">71.0s</text>
<text x="1256.0" y="1310" text-anchor="middle" font-size="12" fill="#374151">D</text>
<text x="1256.0" y="1328" text-anchor="middle" font-size="11" fill="#6b7280">Full KG</text>
<text x="60" y="1374" font-size="14" fill="#6b7280">N/A means the metric was not measured or not retained for that mode; values are not imputed.</text>
<text x="60" y="1400" font-size="14" fill="#6b7280">Generated from eval/ablation_deepseek_aura_v0_1/ablation_summary.tsv.</text>
</svg>