<svg xmlns="http://www.w3.org/2000/svg" width="1480" height="920" viewBox="0 0 1480 920">
<rect width="100%" height="100%" fill="#f3f4f6"/>
<text x="60" y="68" font-size="34" font-weight="850" fill="#111827">C Route Version Trend</text>
<rect x="60" y="126" width="1360" height="56" rx="14" fill="#ecfdf5" stroke="#10b981"/>
<text x="84" y="162" font-size="19" font-weight="800" fill="#065f46">Final C: top-k 100.0%, type accuracy 91.7%, main evidence 88.9%, benchmark 77.8%.</text>
<rect x="60" y="218" width="680" height="330" rx="14" fill="#ffffff" stroke="#d1d5db"/>
<text x="86" y="254" font-size="21" font-weight="800" fill="#111827">Top-k hit</text>
<line x1="134" y1="470" x2="698" y2="470" stroke="#94a3b8"/>
<line x1="134" y1="294" x2="134" y2="470" stroke="#94a3b8"/>
<line x1="129" y1="470.0" x2="698" y2="470.0" stroke="#e5e7eb"/>
<text x="122" y="475.0" text-anchor="end" font-size="12" fill="#6b7280">0%</text>
<line x1="129" y1="382.0" x2="698" y2="382.0" stroke="#e5e7eb"/>
<text x="122" y="387.0" text-anchor="end" font-size="12" fill="#6b7280">50%</text>
<line x1="129" y1="294.0" x2="698" y2="294.0" stroke="#e5e7eb"/>
<text x="122" y="299.0" text-anchor="end" font-size="12" fill="#6b7280">100%</text>
<line x1="134.0" y1="308.7" x2="322.0" y2="294.0" stroke="#059669" stroke-width="5" stroke-linecap="round"/>
<line x1="322.0" y1="294.0" x2="510.0" y2="294.0" stroke="#059669" stroke-width="5" stroke-linecap="round"/>
<line x1="510.0" y1="294.0" x2="698.0" y2="294.0" stroke="#059669" stroke-width="5" stroke-linecap="round"/>
<circle cx="134.0" cy="308.7" r="8" fill="#059669" stroke="#ffffff" stroke-width="3"/>
<text x="134.0" y="296.7" text-anchor="middle" font-size="13" font-weight="800" fill="#111827">91.7%</text>
<circle cx="322.0" cy="294.0" r="8" fill="#059669" stroke="#ffffff" stroke-width="3"/>
<text x="322.0" y="282.0" text-anchor="middle" font-size="13" font-weight="800" fill="#111827">100.0%</text>
<circle cx="510.0" cy="294.0" r="8" fill="#059669" stroke="#ffffff" stroke-width="3"/>
<text x="510.0" y="282.0" text-anchor="middle" font-size="13" font-weight="800" fill="#111827">100.0%</text>
<circle cx="698.0" cy="294.0" r="8" fill="#059669" stroke="#ffffff" stroke-width="3"/>
<text x="698.0" y="282.0" text-anchor="middle" font-size="13" font-weight="800" fill="#111827">100.0%</text>
<text x="134.0" y="498" text-anchor="middle" font-size="12" fill="#374151">v0.1</text>
<text x="322.0" y="498" text-anchor="middle" font-size="12" fill="#374151">v0.2</text>
<text x="510.0" y="498" text-anchor="middle" font-size="12" fill="#374151">v0.3</text>
<text x="698.0" y="498" text-anchor="middle" font-size="12" fill="#374151">v0.4</text>
<rect x="740" y="218" width="680" height="330" rx="14" fill="#ffffff" stroke="#d1d5db"/>
<text x="766" y="254" font-size="21" font-weight="800" fill="#111827">Recommendation type accuracy</text>
<line x1="814" y1="470" x2="1378" y2="470" stroke="#94a3b8"/>
<line x1="814" y1="294" x2="814" y2="470" stroke="#94a3b8"/>
<line x1="809" y1="470.0" x2="1378" y2="470.0" stroke="#e5e7eb"/>
<text x="802" y="475.0" text-anchor="end" font-size="12" fill="#6b7280">0%</text>
<line x1="809" y1="382.0" x2="1378" y2="382.0" stroke="#e5e7eb"/>
<text x="802" y="387.0" text-anchor="end" font-size="12" fill="#6b7280">50%</text>
<line x1="809" y1="294.0" x2="1378" y2="294.0" stroke="#e5e7eb"/>
<text x="802" y="299.0" text-anchor="end" font-size="12" fill="#6b7280">100%</text>
<line x1="814.0" y1="323.3" x2="1002.0" y2="308.7" stroke="#2563eb" stroke-width="5" stroke-linecap="round"/>
<line x1="1002.0" y1="308.7" x2="1190.0" y2="308.7" stroke="#2563eb" stroke-width="5" stroke-linecap="round"/>
<line x1="1190.0" y1="308.7" x2="1378.0" y2="308.7" stroke="#2563eb" stroke-width="5" stroke-linecap="round"/>
<circle cx="814.0" cy="323.3" r="8" fill="#2563eb" stroke="#ffffff" stroke-width="3"/>
<text x="814.0" y="311.3" text-anchor="middle" font-size="13" font-weight="800" fill="#111827">83.3%</text>
<circle cx="1002.0" cy="308.7" r="8" fill="#2563eb" stroke="#ffffff" stroke-width="3"/>
<text x="1002.0" y="296.7" text-anchor="middle" font-size="13" font-weight="800" fill="#111827">91.7%</text>
<circle cx="1190.0" cy="308.7" r="8" fill="#2563eb" stroke="#ffffff" stroke-width="3"/>
<text x="1190.0" y="296.7" text-anchor="middle" font-size="13" font-weight="800" fill="#111827">91.7%</text>
<circle cx="1378.0" cy="308.7" r="8" fill="#2563eb" stroke="#ffffff" stroke-width="3"/>
<text x="1378.0" y="296.7" text-anchor="middle" font-size="13" font-weight="800" fill="#111827">91.7%</text>
<text x="814.0" y="498" text-anchor="middle" font-size="12" fill="#374151">v0.1</text>
<text x="1002.0" y="498" text-anchor="middle" font-size="12" fill="#374151">v0.2</text>
<text x="1190.0" y="498" text-anchor="middle" font-size="12" fill="#374151">v0.3</text>
<text x="1378.0" y="498" text-anchor="middle" font-size="12" fill="#374151">v0.4</text>
<rect x="60" y="580" width="680" height="330" rx="14" fill="#ffffff" stroke="#d1d5db"/>
<text x="86" y="616" font-size="21" font-weight="800" fill="#111827">Main-tool evidence support</text>
<line x1="134" y1="832" x2="698" y2="832" stroke="#94a3b8"/>
<line x1="134" y1="656" x2="134" y2="832" stroke="#94a3b8"/>
<line x1="129" y1="832.0" x2="698" y2="832.0" stroke="#e5e7eb"/>
<text x="122" y="837.0" text-anchor="end" font-size="12" fill="#6b7280">0%</text>
<line x1="129" y1="744.0" x2="698" y2="744.0" stroke="#e5e7eb"/>
<text x="122" y="749.0" text-anchor="end" font-size="12" fill="#6b7280">50%</text>
<line x1="129" y1="656.0" x2="698" y2="656.0" stroke="#e5e7eb"/>
<text x="122" y="661.0" text-anchor="end" font-size="12" fill="#6b7280">100%</text>
<line x1="134.0" y1="714.7" x2="322.0" y2="692.7" stroke="#7c3aed" stroke-width="5" stroke-linecap="round"/>
<line x1="322.0" y1="692.7" x2="510.0" y2="675.6" stroke="#7c3aed" stroke-width="5" stroke-linecap="round"/>
<line x1="510.0" y1="675.6" x2="698.0" y2="675.6" stroke="#7c3aed" stroke-width="5" stroke-linecap="round"/>
<circle cx="134.0" cy="714.7" r="8" fill="#7c3aed" stroke="#ffffff" stroke-width="3"/>
<text x="134.0" y="702.7" text-anchor="middle" font-size="13" font-weight="800" fill="#111827">66.7%</text>
<circle cx="322.0" cy="692.7" r="8" fill="#7c3aed" stroke="#ffffff" stroke-width="3"/>
<text x="322.0" y="680.7" text-anchor="middle" font-size="13" font-weight="800" fill="#111827">79.2%</text>
<circle cx="510.0" cy="675.6" r="8" fill="#7c3aed" stroke="#ffffff" stroke-width="3"/>
<text x="510.0" y="663.6" text-anchor="middle" font-size="13" font-weight="800" fill="#111827">88.9%</text>
<circle cx="698.0" cy="675.6" r="8" fill="#7c3aed" stroke="#ffffff" stroke-width="3"/>
<text x="698.0" y="663.6" text-anchor="middle" font-size="13" font-weight="800" fill="#111827">88.9%</text>
<text x="134.0" y="860" text-anchor="middle" font-size="12" fill="#374151">v0.1</text>
<text x="322.0" y="860" text-anchor="middle" font-size="12" fill="#374151">v0.2</text>
<text x="510.0" y="860" text-anchor="middle" font-size="12" fill="#374151">v0.3</text>
<text x="698.0" y="860" text-anchor="middle" font-size="12" fill="#374151">v0.4</text>
<rect x="740" y="580" width="680" height="330" rx="14" fill="#ffffff" stroke="#d1d5db"/>
<text x="766" y="616" font-size="21" font-weight="800" fill="#111827">Main-tool benchmark support</text>
<line x1="814" y1="832" x2="1378" y2="832" stroke="#94a3b8"/>
<line x1="814" y1="656" x2="814" y2="832" stroke="#94a3b8"/>
<line x1="809" y1="832.0" x2="1378" y2="832.0" stroke="#e5e7eb"/>
<text x="802" y="837.0" text-anchor="end" font-size="12" fill="#6b7280">0%</text>
<line x1="809" y1="744.0" x2="1378" y2="744.0" stroke="#e5e7eb"/>
<text x="802" y="749.0" text-anchor="end" font-size="12" fill="#6b7280">50%</text>
<line x1="809" y1="656.0" x2="1378" y2="656.0" stroke="#e5e7eb"/>
<text x="802" y="661.0" text-anchor="end" font-size="12" fill="#6b7280">100%</text>
<line x1="814.0" y1="744.0" x2="1002.0" y2="729.3" stroke="#d97706" stroke-width="5" stroke-linecap="round"/>
<line x1="1002.0" y1="729.3" x2="1190.0" y2="695.1" stroke="#d97706" stroke-width="5" stroke-linecap="round"/>
<line x1="1190.0" y1="695.1" x2="1378.0" y2="695.1" stroke="#d97706" stroke-width="5" stroke-linecap="round"/>
<circle cx="814.0" cy="744.0" r="8" fill="#d97706" stroke="#ffffff" stroke-width="3"/>
<text x="814.0" y="732.0" text-anchor="middle" font-size="13" font-weight="800" fill="#111827">50.0%</text>
<circle cx="1002.0" cy="729.3" r="8" fill="#d97706" stroke="#ffffff" stroke-width="3"/>
<text x="1002.0" y="717.3" text-anchor="middle" font-size="13" font-weight="800" fill="#111827">58.3%</text>
<circle cx="1190.0" cy="695.1" r="8" fill="#d97706" stroke="#ffffff" stroke-width="3"/>
<text x="1190.0" y="683.1" text-anchor="middle" font-size="13" font-weight="800" fill="#111827">77.8%</text>
<circle cx="1378.0" cy="695.1" r="8" fill="#d97706" stroke="#ffffff" stroke-width="3"/>
<text x="1378.0" y="683.1" text-anchor="middle" font-size="13" font-weight="800" fill="#111827">77.8%</text>
<text x="814.0" y="860" text-anchor="middle" font-size="12" fill="#374151">v0.1</text>
<text x="1002.0" y="860" text-anchor="middle" font-size="12" fill="#374151">v0.2</text>
<text x="1190.0" y="860" text-anchor="middle" font-size="12" fill="#374151">v0.3</text>
<text x="1378.0" y="860" text-anchor="middle" font-size="12" fill="#374151">v0.4</text>
</svg>