<svg xmlns="http://www.w3.org/2000/svg" width="1640" height="1260" viewBox="0 0 1640 1260">
<defs><marker id="arrow" markerWidth="12" markerHeight="12" refX="9" refY="3" orient="auto" markerUnits="strokeWidth"><path d="M0,0 L0,6 L9,3 z" fill="#475569"/></marker></defs>
<rect width="100%" height="100%" fill="#f8fafc"/>
<text x="64" y="68" font-size="36" font-weight="850" fill="#0f172a">scKG Agent v0.12 Minimal Hybrid KG-RAG</text>
<text x="64" y="104" font-size="18" fill="#475569">v0.12 full offline sealed run: ContextPack governance + exploratory migration evaluation</text>
<rect x="64" y="130" width="1512" height="82" rx="14" fill="#ecfdf5" stroke="#10b981"/>
<text x="92" y="164" font-size="21" font-weight="800" fill="#065f46">LLM does synthesis; KG sets evidence and constraints; RAG explains provenance; Auditor blocks unsafe claims.</text>
<text x="92" y="192" font-size="14" fill="#134e4a">This figure is generated from offline ContextPack and migration-eval outputs. No paid LLM call, no Neo4j write, no formal evidence mutation.</text>
<rect x="64" y="246" width="245" height="120" rx="10" fill="#ffffff" stroke="#cbd5e1"/>
<text x="84" y="277" font-size="14" font-weight="700" fill="#334155">ContextPack audit</text>
<text x="84" y="318" font-size="31" font-weight="850" fill="#059669">100.0%</text>
<text x="84" y="348" font-size="12" fill="#64748b">boundary checks passed</text>
<rect x="329" y="246" width="245" height="120" rx="10" fill="#ffffff" stroke="#cbd5e1"/>
<text x="349" y="277" font-size="14" font-weight="700" fill="#334155">RAG snippets</text>
<text x="349" y="318" font-size="31" font-weight="850" fill="#2563eb">3.514</text>
<text x="349" y="348" font-size="12" fill="#64748b">mean formal snippets/query</text>
<rect x="594" y="246" width="245" height="120" rx="10" fill="#ffffff" stroke="#cbd5e1"/>
<text x="614" y="277" font-size="14" font-weight="700" fill="#334155">Migration paths</text>
<text x="614" y="318" font-size="31" font-weight="850" fill="#7c3aed">15</text>
<text x="614" y="348" font-size="12" fill="#64748b">accepted context paths</text>
<rect x="859" y="246" width="245" height="120" rx="10" fill="#ffffff" stroke="#cbd5e1"/>
<text x="879" y="277" font-size="14" font-weight="700" fill="#334155">Excluded paths</text>
<text x="879" y="318" font-size="31" font-weight="850" fill="#d97706">4</text>
<text x="879" y="348" font-size="12" fill="#64748b">kept in blocked context</text>
<rect x="1124" y="246" width="215" height="120" rx="10" fill="#ffffff" stroke="#cbd5e1"/>
<text x="1144" y="277" font-size="14" font-weight="700" fill="#334155">High hallucination</text>
<text x="1144" y="318" font-size="31" font-weight="850" fill="#dc2626">0.0%</text>
<text x="1144" y="348" font-size="12" fill="#64748b">offline smoke</text>
<rect x="1359" y="246" width="217" height="120" rx="10" fill="#ffffff" stroke="#cbd5e1"/>
<text x="1379" y="277" font-size="14" font-weight="700" fill="#334155">Unsafe claims</text>
<text x="1379" y="318" font-size="31" font-weight="850" fill="#dc2626">0.0%</text>
<text x="1379" y="348" font-size="12" fill="#64748b">unsupported tool claims</text>
<rect x="64" y="430" width="245" height="178" rx="12" fill="#ffffff" stroke="#cbd5e1" stroke-width="1.5"/>
<text x="82" y="462" font-size="18" font-weight="800" fill="#0f172a">User Query</text>
<text x="82" y="492" font-size="13" fill="#334155">Task, modality, constraints</text>
<text x="82" y="516" font-size="13" fill="#334155">May ask recommendation</text>
<text x="82" y="540" font-size="13" fill="#334155">May ask migration idea</text>
<text x="82" y="564" font-size="13" fill="#334155">May be under-specified</text>
<rect x="356" y="430" width="260" height="178" rx="12" fill="#eff6ff" stroke="#60a5fa" stroke-width="1.5"/>
<text x="374" y="462" font-size="18" font-weight="800" fill="#0f172a">Parser + Gate</text>
<text x="374" y="492" font-size="13" fill="#334155">Task ontology</text>
<text x="374" y="516" font-size="13" fill="#334155">Tool-task-modality filter</text>
<text x="374" y="540" font-size="13" fill="#334155">Migration intent gate</text>
<text x="374" y="564" font-size="13" fill="#334155">Blocked tools / missing inputs</text>
<rect x="664" y="430" width="260" height="178" rx="12" fill="#f0fdf4" stroke="#22c55e" stroke-width="1.5"/>
<text x="682" y="462" font-size="18" font-weight="800" fill="#0f172a">KG Evidence Layer</text>
<text x="682" y="492" font-size="13" fill="#334155">trusted_core evidence</text>
<text x="682" y="516" font-size="13" fill="#334155">publications / benchmarks</text>
<text x="682" y="540" font-size="13" fill="#334155">MCDM ranking inputs</text>
<text x="682" y="564" font-size="13" fill="#334155">candidate evidence isolated</text>
<rect x="972" y="430" width="260" height="178" rx="12" fill="#fff7ed" stroke="#fb923c" stroke-width="1.5"/>
<text x="990" y="462" font-size="18" font-weight="800" fill="#0f172a">Formal RAG Layer</text>
<text x="990" y="492" font-size="13" fill="#334155">reviewed TSV snippets</text>
<text x="990" y="516" font-size="13" fill="#334155">DOI / protocol / claim span</text>
<text x="990" y="540" font-size="13" fill="#334155">explanation only</text>
<text x="990" y="564" font-size="13" fill="#334155">does not change score</text>
<rect x="1280" y="430" width="296" height="178" rx="12" fill="#faf5ff" stroke="#a855f7" stroke-width="1.5"/>
<text x="1298" y="462" font-size="18" font-weight="800" fill="#0f172a">ContextPack</text>
<text x="1298" y="492" font-size="13" fill="#334155">trusted_recommendation_context</text>
<text x="1298" y="516" font-size="13" fill="#334155">retrieval_context</text>
<text x="1298" y="540" font-size="13" fill="#334155">migration_context</text>
<text x="1298" y="564" font-size="13" fill="#334155">blocked_context</text>
<text x="1298" y="588" font-size="13" fill="#334155">prompt_policy</text>
<line x1="309" y1="519" x2="356" y2="519" stroke="#475569" stroke-width="2.4" marker-end="url(#arrow)"/>
<text x="332.5" y="511.0" text-anchor="middle" font-size="12" font-weight="700" fill="#475569">parse</text>
<line x1="616" y1="519" x2="664" y2="519" stroke="#475569" stroke-width="2.4" marker-end="url(#arrow)"/>
<text x="640.0" y="511.0" text-anchor="middle" font-size="12" font-weight="700" fill="#475569">filter</text>
<line x1="924" y1="502" x2="972" y2="502" stroke="#475569" stroke-width="2.4" marker-end="url(#arrow)"/>
<text x="948.0" y="494.0" text-anchor="middle" font-size="12" font-weight="700" fill="#475569">retrieve</text>
<line x1="1232" y1="519" x2="1280" y2="519" stroke="#475569" stroke-width="2.4" marker-end="url(#arrow)"/>
<text x="1256.0" y="511.0" text-anchor="middle" font-size="12" font-weight="700" fill="#475569">pack</text>
<rect x="64" y="688" width="352" height="186" rx="12" fill="#ffffff" stroke="#cbd5e1" stroke-width="1.5"/>
<text x="82" y="720" font-size="18" font-weight="800" fill="#0f172a">Recommendation Output</text>
<text x="82" y="750" font-size="13" fill="#334155">Primary top-k comes from KG + MCDM</text>
<text x="82" y="774" font-size="13" fill="#334155">Only trusted recommendation evidence can rank</text>
<text x="82" y="798" font-size="13" fill="#334155">RAG snippets may explain why</text>
<text x="82" y="822" font-size="13" fill="#334155">Missing evidence stays visible</text>
<rect x="464" y="688" width="352" height="186" rx="12" fill="#ffffff" stroke="#cbd5e1" stroke-width="1.5"/>
<text x="482" y="720" font-size="18" font-weight="800" fill="#0f172a">MigrationHypothesis Output</text>
<text x="482" y="750" font-size="13" fill="#334155">Exploratory only</text>
<text x="482" y="774" font-size="13" fill="#334155">Only accept_exploratory is visible</text>
<text x="482" y="798" font-size="13" fill="#334155">revise/reject/profile-only stay excluded</text>
<text x="482" y="822" font-size="13" fill="#334155">Must show caveats and I/O gaps</text>
<rect x="864" y="688" width="312" height="186" rx="12" fill="#eef2ff" stroke="#818cf8" stroke-width="1.5"/>
<text x="882" y="720" font-size="18" font-weight="800" fill="#0f172a">Deterministic Offline Report</text>
<text x="882" y="750" font-size="13" fill="#334155">Reads ContextPack only</text>
<text x="882" y="774" font-size="13" fill="#334155">No unfiltered candidate pool</text>
<text x="882" y="798" font-size="13" fill="#334155">No paid LLM in offline mode</text>
<text x="882" y="822" font-size="13" fill="#334155">Future LLM gets same pack</text>
<rect x="1224" y="688" width="352" height="186" rx="12" fill="#fef2f2" stroke="#f87171" stroke-width="1.5"/>
<text x="1242" y="720" font-size="18" font-weight="800" fill="#0f172a">Semantic Auditor</text>
<text x="1242" y="750" font-size="13" fill="#334155">Audits user-visible report</text>
<text x="1242" y="774" font-size="13" fill="#334155">Checks tool/literature/benchmark claims</text>
<text x="1242" y="798" font-size="13" fill="#334155">RAG snippet treated as provenance</text>
<text x="1242" y="822" font-size="13" fill="#334155">High/critical issues block report</text>
<line x1="241" y1="608" x2="241" y2="688" stroke="#475569" stroke-width="2.4" marker-end="url(#arrow)"/>
<text x="241.0" y="640.0" text-anchor="middle" font-size="12" font-weight="700" fill="#475569">trusted</text>
<line x1="640" y1="608" x2="640" y2="688" stroke="#475569" stroke-width="2.4" marker-end="url(#arrow)"/>
<text x="640.0" y="640.0" text-anchor="middle" font-size="12" font-weight="700" fill="#475569">explore</text>
<line x1="1428" y1="608" x2="1040" y2="688" stroke="#475569" stroke-width="2.4" marker-end="url(#arrow)"/>
<text x="1234.0" y="640.0" text-anchor="middle" font-size="12" font-weight="700" fill="#475569">render</text>
<line x1="1176" y1="781" x2="1224" y2="781" stroke="#475569" stroke-width="2.4" marker-end="url(#arrow)"/>
<text x="1200.0" y="773.0" text-anchor="middle" font-size="12" font-weight="700" fill="#475569">audit</text>
<rect x="64" y="944" width="1512" height="176" rx="14" fill="#ffffff" stroke="#cbd5e1"/>
<text x="92" y="982" font-size="22" font-weight="850" fill="#0f172a">Boundary Invariants Checked</text>
<text x="92" y="1034" font-size="12" fill="#64748b">retrieval rankable violations</text>
<text x="92" y="1065" font-size="26" font-weight="850" fill="#059669">0</text>
<text x="332" y="1034" font-size="12" fill="#64748b">trusted non-main violations</text>
<text x="332" y="1065" font-size="26" font-weight="850" fill="#059669">0</text>
<text x="572" y="1034" font-size="12" fill="#64748b">bad migration decisions</text>
<text x="572" y="1065" font-size="26" font-weight="850" fill="#059669">0</text>
<text x="812" y="1034" font-size="12" fill="#64748b">accepted hypothesis rate</text>
<text x="812" y="1065" font-size="26" font-weight="850" fill="#059669">100.0%</text>
<text x="1052" y="1034" font-size="12" fill="#64748b">unreviewed migration rate</text>
<text x="1052" y="1065" font-size="26" font-weight="850" fill="#059669">0.0%</text>
<text x="1292" y="1034" font-size="12" fill="#64748b">negative false migration</text>
<text x="1292" y="1065" font-size="26" font-weight="850" fill="#059669">5.9%</text>
<text x="64" y="1168" font-size="14" fill="#64748b">Interpretation: v0.12 is not claiming final migration intelligence. It proves the governance pipe: KG-ranked recommendation, RAG provenance, exploratory migration, and auditor safety are separated.</text>
<text x="64" y="1196" font-size="13" fill="#64748b">ContextPack audit source: eval/context_pack_v0_12_full_offline_audit_summary.json</text>
<text x="64" y="1216" font-size="13" fill="#64748b">Migration eval source: eval/context_pack_v0_12_full_offline_migration_eval_summary.tsv</text>
</svg>