<svg xmlns="http://www.w3.org/2000/svg" width="1480" height="1020" viewBox="0 0 1480 1020">
<rect width="100%" height="100%" fill="#f3f4f6"/>
<text x="60" y="66" font-size="34" font-weight="800" fill="#111827">scKG v0.3 Migration Hypothesis Evaluation</text>
<text x="60" y="100" font-size="18" fill="#4b5563">v0.3.1 no-gold-leak blind migration evaluation</text>
<rect x="60" y="126" width="1360" height="82" rx="16" fill="#eff6ff" stroke="#60a5fa"/>
<text x="86" y="160" font-size="20" font-weight="750" fill="#1e3a8a">Takeaway: migration is now a measurable exploratory layer, separated from formal tool recommendation.</text>
<text x="86" y="186" font-size="15" fill="#1f2937">Scores describe plausibility and compatibility signals; they are not benchmark proof, not a direct-use guarantee, and not main top-k recommendation evidence.</text>
<rect x="60" y="246" width="430" height="220" rx="16" fill="#ffffff" stroke="#d1d5db"/>
<text x="88" y="282" font-size="22" font-weight="750" fill="#111827">Source-tool hit</text>
<text x="88" y="308" font-size="14" fill="#6b7280">higher is better</text>
<text x="88" y="358" font-size="34" font-weight="800" fill="#059669">100.0%</text>
<rect x="88" y="386" width="360" height="20" rx="10" fill="#e5e7eb"/>
<rect x="88" y="386" width="360.0" height="20" rx="10" fill="#059669"/>
<rect x="525" y="246" width="430" height="220" rx="16" fill="#ffffff" stroke="#d1d5db"/>
<text x="553" y="282" font-size="22" font-weight="750" fill="#111827">Forbidden violations</text>
<text x="553" y="308" font-size="14" fill="#6b7280">lower is better</text>
<text x="553" y="358" font-size="34" font-weight="800" fill="#dc2626">0.0%</text>
<rect x="553" y="386" width="360" height="20" rx="10" fill="#e5e7eb"/>
<rect x="553" y="386" width="0.0" height="20" rx="10" fill="#dc2626"/>
<rect x="990" y="246" width="430" height="220" rx="16" fill="#ffffff" stroke="#d1d5db"/>
<text x="1018" y="282" font-size="22" font-weight="750" fill="#111827">Caveat + boundary</text>
<text x="1018" y="308" font-size="14" fill="#6b7280">higher is better</text>
<text x="1018" y="358" font-size="34" font-weight="800" fill="#059669">100.0%</text>
<rect x="1018" y="386" width="360" height="20" rx="10" fill="#e5e7eb"/>
<rect x="1018" y="386" width="360.0" height="20" rx="10" fill="#059669"/>
<rect x="60" y="500" width="430" height="220" rx="16" fill="#ffffff" stroke="#d1d5db"/>
<text x="88" y="536" font-size="22" font-weight="750" fill="#111827">Compatibility gaps</text>
<text x="88" y="562" font-size="14" fill="#6b7280">higher is better</text>
<text x="88" y="612" font-size="34" font-weight="800" fill="#059669">100.0%</text>
<rect x="88" y="640" width="360" height="20" rx="10" fill="#e5e7eb"/>
<rect x="88" y="640" width="360.0" height="20" rx="10" fill="#059669"/>
<rect x="525" y="500" width="430" height="220" rx="16" fill="#ffffff" stroke="#d1d5db"/>
<text x="553" y="536" font-size="22" font-weight="750" fill="#111827">Mean plausibility</text>
<text x="553" y="562" font-size="14" fill="#6b7280">diagnostic score, not a recommendation rank</text>
<text x="553" y="612" font-size="34" font-weight="800" fill="#2563eb">0.358</text>
<rect x="553" y="640" width="360" height="20" rx="10" fill="#e5e7eb"/>
<rect x="553" y="640" width="128.9" height="20" rx="10" fill="#2563eb"/>
<rect x="990" y="500" width="430" height="220" rx="16" fill="#ffffff" stroke="#d1d5db"/>
<text x="1018" y="536" font-size="22" font-weight="750" fill="#111827">Audit safety</text>
<text x="1018" y="562" font-size="14" fill="#6b7280">higher is better</text>
<text x="1018" y="612" font-size="34" font-weight="800" fill="#059669">100.0%</text>
<rect x="1018" y="640" width="360" height="20" rx="10" fill="#e5e7eb"/>
<rect x="1018" y="640" width="360.0" height="20" rx="10" fill="#059669"/>
<rect x="60" y="756" width="1360" height="178" rx="16" fill="#ffffff" stroke="#d1d5db"/>
<text x="86" y="792" font-size="22" font-weight="750" fill="#111827">Governance Diagnostics</text>
<text x="86" y="836" font-size="13" fill="#6b7280">Queries</text>
<text x="86" y="862" font-size="24" font-weight="800" fill="#111827">8</text>
<text x="416" y="836" font-size="13" fill="#6b7280">Accepted reviewed paths</text>
<text x="416" y="862" font-size="24" font-weight="800" fill="#111827">100.0%</text>
<text x="746" y="836" font-size="13" fill="#6b7280">Unreviewed path rate</text>
<text x="746" y="862" font-size="24" font-weight="800" fill="#111827">40.0%</text>
<text x="1076" y="836" font-size="13" fill="#6b7280">Revise-block success</text>
<text x="1076" y="862" font-size="24" font-weight="800" fill="#111827">100.0%</text>
<text x="86" y="894" font-size="13" fill="#6b7280">Mean I/O compatibility</text>
<text x="86" y="920" font-size="24" font-weight="800" fill="#111827">0.465</text>
<text x="416" y="894" font-size="13" fill="#6b7280">Mean graph Jaccard</text>
<text x="416" y="920" font-size="24" font-weight="800" fill="#111827">0.274</text>
<text x="746" y="894" font-size="13" fill="#6b7280">Mean risk penalty</text>
<text x="746" y="920" font-size="24" font-weight="800" fill="#111827">0.157</text>
<text x="60" y="970" font-size="14" fill="#6b7280">Forbidden claim checks ignore explicit negated boundary statements such as "not a validated performance claim".</text>
<text x="60" y="992" font-size="14" fill="#6b7280">Generated from eval/migration_v0_3_1_blind_eval_summary.tsv.</text>
</svg>