<svg xmlns="http://www.w3.org/2000/svg" width="1600" height="1280" viewBox="0 0 1600 1280">
<rect width="100%" height="100%" fill="#f8fafc"/>
<text x="64" y="70" font-size="36" font-weight="850" fill="#0f172a">scKG Agent v0.3 Overview</text>
<text x="64" y="106" font-size="18" fill="#475569">Evidence-governed recommendation plus exploratory migration hypotheses</text>
<rect x="64" y="132" width="1472" height="84" rx="18" fill="#ecfdf5" stroke="#10b981"/>
<text x="92" y="166" font-size="21" font-weight="800" fill="#065f46">System thesis: trusted recommendation is separated from exploratory algorithm migration.</text>
<text x="92" y="194" font-size="15" fill="#134e4a">Formal recommendation uses reviewed evidence and auditor checks; migration outputs are hypothesis candidates with caveats and compatibility gaps.</text>
<text x="64" y="274" font-size="28" font-weight="850" fill="#111827">Layer 1: Evidence-Governed Recommendation</text>
<text x="64" y="304" font-size="15" fill="#64748b">Default route: Evidence Gate + Auditor. Evidence Gate alone measures ranking; Auditor measures user-visible safety.</text>
<rect x="64" y="330" width="270" height="132" rx="16" fill="#ffffff" stroke="#d1d5db"/>
<text x="88" y="362" font-size="15" font-weight="700" fill="#374151">C top-k hit</text>
<text x="88" y="408" font-size="34" font-weight="800" fill="#059669">100.0%</text>
<text x="88" y="438" font-size="13" fill="#6b7280">expected tool in top-3</text>
<rect x="354" y="330" width="270" height="132" rx="16" fill="#ffffff" stroke="#d1d5db"/>
<text x="378" y="362" font-size="15" font-weight="700" fill="#374151">C benchmark evidence</text>
<text x="378" y="408" font-size="34" font-weight="800" fill="#2563eb">69.4%</text>
<text x="378" y="438" font-size="13" fill="#6b7280">main-tool benchmark coverage</text>
<rect x="644" y="330" width="270" height="132" rx="16" fill="#ffffff" stroke="#d1d5db"/>
<text x="668" y="362" font-size="15" font-weight="700" fill="#374151">C high hallucination</text>
<text x="668" y="408" font-size="34" font-weight="800" fill="#dc2626">0.0%</text>
<text x="668" y="438" font-size="13" fill="#6b7280">lower is better</text>
<rect x="934" y="330" width="270" height="132" rx="16" fill="#ffffff" stroke="#d1d5db"/>
<text x="958" y="362" font-size="15" font-weight="700" fill="#374151">C audit pass</text>
<text x="958" y="408" font-size="34" font-weight="800" fill="#059669">100.0%</text>
<text x="958" y="438" font-size="13" fill="#6b7280">semantic audit pass</text>
<rect x="1224" y="330" width="312" height="132" rx="16" fill="#ffffff" stroke="#d1d5db"/>
<text x="1248" y="362" font-size="15" font-weight="700" fill="#374151">D mean latency</text>
<text x="1248" y="408" font-size="34" font-weight="800" fill="#7c3aed">73.6s</text>
<text x="1248" y="438" font-size="13" fill="#6b7280">full KG diagnostic route</text>
<rect x="64" y="492" width="710" height="266" rx="16" fill="#ffffff" stroke="#d1d5db"/>
<text x="88" y="528" font-size="22" font-weight="800" fill="#111827">Recommendation Route Comparison</text>
<text x="88" y="554" font-size="14" fill="#6b7280">Blind v0.2 set; C is the default safety route.</text>
<text x="88" y="600" font-size="14" fill="#374151">Pure LLM</text>
<rect x="258" y="584" width="402" height="20" rx="10" fill="#e5e7eb"/>
<rect x="258" y="584" width="268.0" height="20" rx="10" fill="#6b7280"/>
<text x="674" y="600" font-size="14" font-weight="700" fill="#111827">66.7%</text>
<text x="88" y="640" font-size="14" fill="#374151">Evidence Gate</text>
<rect x="258" y="624" width="402" height="20" rx="10" fill="#e5e7eb"/>
<rect x="258" y="624" width="402.0" height="20" rx="10" fill="#2563eb"/>
<text x="674" y="640" font-size="14" font-weight="700" fill="#111827">100.0%</text>
<text x="88" y="680" font-size="14" fill="#374151">Gate + Auditor</text>
<rect x="258" y="664" width="402" height="20" rx="10" fill="#e5e7eb"/>
<rect x="258" y="664" width="402.0" height="20" rx="10" fill="#059669"/>
<text x="674" y="680" font-size="14" font-weight="700" fill="#111827">100.0%</text>
<text x="88" y="720" font-size="14" fill="#374151">Full KG</text>
<rect x="258" y="704" width="402" height="20" rx="10" fill="#e5e7eb"/>
<rect x="258" y="704" width="402.0" height="20" rx="10" fill="#7c3aed"/>
<text x="674" y="720" font-size="14" font-weight="700" fill="#111827">100.0%</text>
<rect x="826" y="492" width="710" height="266" rx="16" fill="#ffffff" stroke="#d1d5db"/>
<text x="850" y="528" font-size="22" font-weight="800" fill="#111827">Cost and Latency Diagnostic</text>
<text x="850" y="554" font-size="14" fill="#6b7280">Full KG remains useful as an exploration baseline, not the default route.</text>
<text x="850" y="600" font-size="14" fill="#374151">Pure LLM</text>
<rect x="1020" y="584" width="402" height="20" rx="10" fill="#e5e7eb"/>
<rect x="1020" y="584" width="196.0" height="20" rx="10" fill="#6b7280"/>
<text x="1436" y="600" font-size="14" font-weight="700" fill="#111827">35.9s</text>
<text x="850" y="640" font-size="14" fill="#374151">Evidence Gate</text>
<rect x="1020" y="624" width="402" height="20" rx="10" fill="#e5e7eb"/>
<rect x="1020" y="624" width="128.4" height="20" rx="10" fill="#2563eb"/>
<text x="1436" y="640" font-size="14" font-weight="700" fill="#111827">23.5s</text>
<text x="850" y="680" font-size="14" fill="#374151">Gate + Auditor</text>
<rect x="1020" y="664" width="402" height="20" rx="10" fill="#e5e7eb"/>
<rect x="1020" y="664" width="129.2" height="20" rx="10" fill="#059669"/>
<text x="1436" y="680" font-size="14" font-weight="700" fill="#111827">23.7s</text>
<text x="850" y="720" font-size="14" fill="#374151">Full KG</text>
<rect x="1020" y="704" width="402" height="20" rx="10" fill="#e5e7eb"/>
<rect x="1020" y="704" width="402.0" height="20" rx="10" fill="#7c3aed"/>
<text x="1436" y="720" font-size="14" font-weight="700" fill="#111827">73.6s</text>
<text x="64" y="818" font-size="28" font-weight="850" fill="#111827">Layer 2: Algorithm Migration Hypothesis</text>
<text x="64" y="848" font-size="15" fill="#64748b">Migration is exploratory only. It surfaces transferable mechanisms, I/O gaps, and validation requirements; it does not enter main recommendation top-k.</text>
<rect x="64" y="874" width="270" height="132" rx="16" fill="#ffffff" stroke="#d1d5db"/>
<text x="88" y="906" font-size="15" font-weight="700" fill="#374151">Migration output</text>
<text x="88" y="952" font-size="34" font-weight="800" fill="#059669">100.0%</text>
<text x="88" y="982" font-size="13" fill="#6b7280">correct exploratory type</text>
<rect x="354" y="874" width="270" height="132" rx="16" fill="#ffffff" stroke="#d1d5db"/>
<text x="378" y="906" font-size="15" font-weight="700" fill="#374151">Source-tool hit</text>
<text x="378" y="952" font-size="34" font-weight="800" fill="#059669">100.0%</text>
<text x="378" y="982" font-size="13" fill="#6b7280">expected source in top-3</text>
<rect x="644" y="874" width="270" height="132" rx="16" fill="#ffffff" stroke="#d1d5db"/>
<text x="668" y="906" font-size="15" font-weight="700" fill="#374151">Forbidden violations</text>
<text x="668" y="952" font-size="34" font-weight="800" fill="#dc2626">0.0%</text>
<text x="668" y="982" font-size="13" fill="#6b7280">tool or strong-claim violations</text>
<rect x="934" y="874" width="270" height="132" rx="16" fill="#ffffff" stroke="#d1d5db"/>
<text x="958" y="906" font-size="15" font-weight="700" fill="#374151">Caveat presence</text>
<text x="958" y="952" font-size="34" font-weight="800" fill="#2563eb">100.0%</text>
<text x="958" y="982" font-size="13" fill="#6b7280">explicit validation language</text>
<rect x="1224" y="874" width="312" height="132" rx="16" fill="#ffffff" stroke="#d1d5db"/>
<text x="1248" y="906" font-size="15" font-weight="700" fill="#374151">Claim boundary</text>
<text x="1248" y="952" font-size="34" font-weight="800" fill="#2563eb">100.0%</text>
<text x="1248" y="982" font-size="13" fill="#6b7280">exploratory boundary visible</text>
<rect x="64" y="1036" width="1472" height="156" rx="18" fill="#ffffff" stroke="#d1d5db"/>
<text x="92" y="1072" font-size="22" font-weight="800" fill="#111827">Migration Governance Diagnostics</text>
<text x="92" y="1120" font-size="13" fill="#64748b">Compatibility gaps surfaced</text>
<text x="92" y="1150" font-size="25" font-weight="850" fill="#0f172a">100.0%</text>
<text x="377" y="1120" font-size="13" fill="#64748b">Revise mechanism blocked</text>
<text x="377" y="1150" font-size="25" font-weight="850" fill="#0f172a">100.0%</text>
<text x="662" y="1120" font-size="13" fill="#64748b">Profile-only path rate</text>
<text x="662" y="1150" font-size="25" font-weight="850" fill="#0f172a">44.4%</text>
<text x="947" y="1120" font-size="13" fill="#64748b">Mean plausibility score</text>
<text x="947" y="1150" font-size="25" font-weight="850" fill="#0f172a">0.435</text>
<text x="1232" y="1120" font-size="13" fill="#64748b">Evidence Gate top-k</text>
<text x="1232" y="1150" font-size="25" font-weight="850" fill="#0f172a">100.0%</text>
<text x="64" y="1232" font-size="14" fill="#64748b">N/A audit values mean audit was not run for that route; they are not zero-risk results. Profile-only migration paths remain candidate-layer and need review before stronger claims.</text>
<text x="64" y="1254" font-size="13" fill="#64748b">Recommendation summary: /Data/Omics/dengjingye/project/04agent/scKG_Agent/eval/ablation_deepseek_aura_v0_2_blind_after_mcdm_qual_benchmark_fix_v2/ablation_summary.tsv</text>
<text x="64" y="1272" font-size="13" fill="#64748b">Migration summary: /Data/Omics/dengjingye/project/04agent/scKG_Agent/eval/migration_v0_3_1_eval_summary.tsv</text>
</svg>